 http://www.falloftherepublic.com/
http://www.imdb.com/title/tt1540880/


     Fall of the Republic: The Presidency of Barack H Obama (2009)


Director     : Alex Jones

User comments: (Author: d.rust from Canada)
   Whether you live in the United States, Canada, the UK or anywhere in the world,
this film is an absolute must-see! Little wonder that Alex Jones is on the White
House "Enemies List", as this documentary shows who Obama is working for, and
why the US Constitution is being shredded in favour of a Global Government.
Although technically incomplete, as Obama has yet to complete at this writing
a year in office, through interviews with economists and historians, "Fall of
the Republic" shows the complete turn-about of Obama's promises as candidate,
to his actions as the highest ranking official in what once was a country that
stood for liberty. See it for yourself, and wake up to the reality that has
replaced the American dream. And make up your own mind about whether this is
just "another conspiracy theory." 
_________________________________________________________________________

Media Info:
General
Complete name                    : Fall.of.the.Republic-The.Presidency.of.Barack.H.Obama(2009)DVDRip.XviD-sNm.avi
Format                           : AVI
Format/Info                      : Audio Video Interleave
File size                        : 698 MiB
Duration                         : 2h 23mn
Overall bit rate                 : 678 Kbps
Movie name                       : FOTR.Title1.DVDRip
Writing application              : Lavf52.33.0
Original source form/Name        : FOTR

Video
Format                           : MPEG-4 Visual
Format profile                   : Simple@L3
Format settings, BVOP            : No
Format settings, QPel            : No
Format settings, GMC             : No warppoints
Format settings, Matrix          : Default
Codec ID                         : XVID
Codec ID/Hint                    : XviD
Duration                         : 2h 23mn
Bit rate                         : 600 Kbps
Width                            : 480 pixels
Height                           : 272 pixels
Display aspect ratio             : 16/9
Frame rate                       : 29.970 fps
Resolution                       : 24 bits
Colorimetry                      : 4:2:0
Scan type                        : Progressive
Bits/(Pixel*Frame)               : 0.153
Stream size                      : 618 MiB (89%)
Writing library                  : XviD 1.2.1 (UTC 2008-12-04)

Audio
Format                           : MPEG Audio
Format version                   : Version 1
Format profile                   : Layer 3
Codec ID                         : 55
Codec ID/Hint                    : MP3
Duration                         : 2h 23mn
Bit rate mode                    : Constant
Bit rate                         : 64.0 Kbps
Channel(s)                       : 2 channels
Sampling rate                    : 48.0 KHz
Resolution                       : 16 bits
Stream size                      : 65.9 MiB (9%)
Alignment                        : Aligned on interleaves
Interleave, duration             : 24 ms (0.72 video frame)
Writing library                  : LAME3.98.2
_________________________________________________________________________

CRC32: [Lupas Rename v5.0]
816ac738

MD5: [File Checksum Integrity Verifier version 2.05.]
1f7486263036ff544e804441746f5fb8
_________________________________________________________________________

Original torrent:
http://isohunt.com/torrent_details/138600785/Fall+of+the+Republic+snm?tab=summary

Watch Online:
http://www.y o u tube.com/watch?v=VebOTc-7shU

See also:
Money as Debt (http://isohunt.com/download/131595577/money+as+debt.torrent)
http://www.y o u tube.com/watch?v=vVkFb26u9g8
